<?xml version="1.0" encoding="UTF-8" standalone="no"?>
<svg
   xmlns:dc="http://purl.org/dc/elements/1.1/"
   xmlns:cc="http://creativecommons.org/ns#"
   xmlns:rdf="http://www.w3.org/1999/02/22-rdf-syntax-ns#"
   xmlns:svg="http://www.w3.org/2000/svg"
   xmlns="http://www.w3.org/2000/svg"
   xmlns:sodipodi="http://sodipodi.sourceforge.net/DTD/sodipodi-0.dtd"
   xmlns:inkscape="http://www.inkscape.org/namespaces/inkscape"
   version="1.1"
   width="841.8898"
   height="595.2756"
   id="svg9"
   sodipodi:docname="cover-image.svg"
   inkscape:version="1.0.1 (3bc2e813f5, 2020-09-07)">
  <metadata
     id="metadata15">
    <rdf:RDF>
      <cc:Work
         rdf:about="">
        <dc:format>image/svg+xml</dc:format>
        <dc:type
           rdf:resource="http://purl.org/dc/dcmitype/StillImage" />
        <dc:title></dc:title>
      </cc:Work>
    </rdf:RDF>
  </metadata>
  <defs
     id="defs13" />
  <sodipodi:namedview
     pagecolor="#ffffff"
     bordercolor="#666666"
     borderopacity="1"
     objecttolerance="10"
     gridtolerance="10"
     guidetolerance="10"
     inkscape:pageopacity="0"
     inkscape:pageshadow="2"
     inkscape:window-width="1920"
     inkscape:window-height="1017"
     id="namedview11"
     showgrid="false"
     inkscape:zoom="0.5"
     inkscape:cx="649.77466"
     inkscape:cy="614.79521"
     inkscape:window-x="-8"
     inkscape:window-y="-8"
     inkscape:window-maximized="1"
     inkscape:current-layer="Layer1000" />
  <g
     id="Layer1000">
    <path
       d="  M574.6593,321.5970 C576.5771,322.3325 577.9158,323.8205 582.8601,324.2221 C594.1686,325.1407 602.3323,318.1036 597.8614,308.4514 C595.8138,304.0312 592.8350,301.8112 590.6376,299.1092 C588.2613,296.1868 584.0856,292.9420 583.7480,289.3521 C583.1870,283.3864 592.9310,284.2028 595.2514,288.3667 C597.0558,291.6052 598.2894,295.3041 600.6617,296.7737 C602.8724,298.1433 612.7499,302.3061 615.8526,303.6731 C617.7355,304.5027 618.9749,304.6511 619.3928,305.6564 L621.6683,311.6657 C622.0026,312.3478 626.2979,314.0634 627.1888,314.4173 C629.7030,315.4156 633.3103,312.9584 635.0385,311.5611 C637.4372,309.6211 641.8977,300.7449 640.9192,295.7281 C639.9901,290.9643 638.7302,290.6596 636.1847,289.4586 C631.6539,287.3213 632.7780,287.7668 628.2059,289.5432 C626.1220,290.3528 626.1080,290.6596 624.0718,289.7291 L612.6343,284.5960 C609.9638,283.3832 606.8271,281.6061 604.3571,281.9022 C601.8186,282.2062 597.8998,284.2769 595.2742,283.7988 C592.1711,283.2341 589.7246,281.7314 585.9990,282.6325 C583.1735,283.3159 581.0385,285.3278 581.0204,288.7515 C580.9971,293.1125 583.5977,295.3150 585.8002,297.8144 C588.1423,300.4721 593.2586,305.3629 594.7058,308.2447 C599.9765,318.7408 587.6472,323.0177 578.0875,318.9425 C575.4719,317.8275 573.4819,315.9906 572.1187,314.0695 C569.6777,310.6294 568.3500,305.9900 567.9201,301.0347 C567.8367,299.9132 567.7934,298.7805 567.7934,297.6378 C567.7934,272.6637 588.0389,252.4183 613.0129,252.4183 C637.9870,252.4183 658.2324,272.6637 658.2324,297.6378 C658.2324,322.6118 637.9870,342.8573 613.0129,342.8573 C596.8393,342.8573 582.6519,334.3646 574.6593,321.5970 Z Z M613.0129,247.0301 C640.9627,247.0301 663.6206,269.6880 663.6206,297.6378 C663.6206,325.5876 640.9627,348.2455 613.0129,348.2455 C585.0631,348.2455 562.4052,325.5876 562.4052,297.6378 C562.4052,269.6880 585.0631,247.0301 613.0129,247.0301 Z Z M654.0348,293.2642 C653.9325,297.2827 654.1328,299.8000 653.2133,303.6969 C651.4779,311.0513 647.0608,318.9488 641.0892,323.5218 L640.3314,324.2755 C641.9317,323.6966 642.7655,323.0573 644.1593,322.0665 C650.1187,317.8308 654.1629,310.8841 655.0200,303.5336 C655.3252,300.9154 655.2986,295.1923 654.0348,293.2642 Z Z M650.5493,292.1441 C650.2676,296.1584 650.5814,298.5834 649.6179,302.4698 C648.6913,306.2074 646.8196,311.0220 644.6204,314.0485 C641.4482,318.4137 641.0417,319.0602 636.7245,322.6044 C639.7911,321.3696 641.4969,319.6752 643.5806,317.9263 C647.5211,314.6191 650.4302,308.0588 651.3318,302.4156 C651.7465,299.8212 651.5224,294.2543 650.5493,292.1441 Z Z M647.1567,292.4714 C646.9138,299.4044 646.1522,303.3071 643.4851,308.7659 C641.1482,313.5488 638.0562,317.0650 634.7536,319.8879 C637.0560,318.8706 639.3571,316.9467 640.7615,315.5123 C641.2432,315.0202 641.4613,314.5883 641.9163,314.0921 C643.0914,312.8107 644.2525,311.0751 645.0136,309.5002 C646.1501,307.1486 647.1171,304.7234 647.5880,301.6360 C647.9840,299.0393 648.1588,294.5756 647.1567,292.4714 Z"
       style="fill-rule: evenodd; fill: #179cbf; "
       id="path2"
       inkscape:export-filename="C:\Users\lilyc\Desktop\apple-touch-icon.png"
       inkscape:export-xdpi="170.72499"
       inkscape:export-ydpi="170.72499" />
    <path
       d="  M207.0394,285.6058 C208.1194,288.6140 209.0256,291.3137 209.7969,293.7047 C210.5683,296.0959 211.3395,298.7955 212.1109,301.8037 C212.6509,299.4125 213.1522,297.3300 213.6150,295.5559 C214.0584,293.7819 214.5214,292.1621 214.9841,290.6966 C215.4469,289.2311 215.9096,287.8427 216.3725,286.5315 C216.8353,285.2201 217.3367,283.7932 217.8765,282.2506 L227.2095,255.6399 L244.3329,255.6399 L223.2758,312.2165 C222.1189,315.2246 221.1547,317.8279 220.3834,320.0261 C219.6120,322.2244 218.8986,324.0949 218.2429,325.6376 C217.5874,327.1802 216.9510,328.4914 216.3339,329.5714 C215.7169,330.6512 215.0226,331.6153 214.2514,332.4637 C213.1715,333.6208 211.9759,334.5849 210.6647,335.3563 C209.3535,336.1275 208.0421,336.7446 206.7309,337.2075 C205.4197,337.6702 204.1856,338.0173 203.0286,338.2487 C201.8715,338.4801 200.8689,338.6730 200.0205,338.8271 L194.9297,339.6371 L191.9214,327.9515 L193.8883,327.3731 C194.9683,327.0645 195.9324,326.7752 196.7809,326.5054 C197.6293,326.2354 198.6705,325.6761 199.9046,324.8276 C202.1415,323.3621 203.7035,321.7423 204.5904,319.9684 C205.4775,318.1942 206.2296,316.5360 206.8466,314.9932 L208.2350,311.2909 L200.3675,312.3322 L178.2690,255.6399 L195.9709,255.6399 L207.0394,285.6058 Z Z M258.9111,300.6467 L258.9111,288.4983 L266.8943,288.4983 C267.3570,288.4983 267.9741,288.4790 268.7454,288.4404 C269.5167,288.4020 270.3266,288.3054 271.1751,288.1513 C272.0235,287.9970 272.8720,287.7270 273.7204,287.3413 C274.5688,286.9556 275.3402,286.4542 276.0343,285.8372 C277.3457,284.6803 278.1555,283.3498 278.4641,281.8457 C278.7726,280.3415 278.9269,279.0110 278.9269,277.8540 C278.9269,275.7714 278.6569,274.0938 278.1169,272.8211 C277.5771,271.5485 276.9986,270.6035 276.3816,269.9865 C275.5330,269.0610 274.3182,268.2896 272.7370,267.6725 C271.1558,267.0555 269.2468,266.7470 267.0099,266.7470 C263.1533,266.7470 260.1066,267.2869 257.8697,268.3667 C255.6328,269.4466 254.0516,270.3722 253.1261,271.1435 L245.4900,260.8464 C249.6551,258.2238 253.6466,256.4690 257.4647,255.5820 C261.2828,254.6951 265.3131,254.2515 269.5553,254.2515 C272.3320,254.2515 275.3402,254.5408 278.5798,255.1192 C281.8193,255.6978 284.9818,257.1054 288.0670,259.3423 C290.3811,261.0392 292.3480,263.2374 293.9676,265.9370 C295.5874,268.6367 296.3974,271.9920 296.3974,276.0028 C296.3974,278.7797 295.9924,281.1129 295.1826,283.0025 C294.3726,284.8924 293.5435,286.3772 292.6950,287.4570 C291.8466,288.5368 290.6895,289.6745 289.2240,290.8701 C287.7585,292.0657 285.8303,293.0492 283.4391,293.8204 C285.1360,294.0519 286.8522,294.5340 288.5877,295.2667 C290.3232,295.9995 291.8850,296.9443 293.2735,298.1013 C293.7362,298.4870 294.3148,299.0655 295.0090,299.8368 C295.7031,300.6080 296.3588,301.5915 296.9758,302.7872 C297.5929,303.9827 298.1329,305.4289 298.5956,307.1257 C299.0584,308.8226 299.2898,310.7510 299.2898,312.9107 C299.2898,315.9189 298.6150,319.1199 297.2651,322.5137 C295.9153,325.9074 293.3892,328.9543 289.6868,331.6539 C287.2958,333.4279 284.4032,334.8356 281.0095,335.8768 C277.6155,336.9182 273.1806,337.4389 267.7041,337.4389 C261.9191,337.4389 257.0792,336.7446 253.1839,335.3563 C249.2888,333.9679 245.9528,332.1553 243.1761,329.9184 L250.5806,319.3899 C252.6632,321.0096 255.0544,322.3402 257.7540,323.3814 C260.4536,324.4228 263.5390,324.9433 267.0099,324.9433 C272.1006,324.9433 275.8030,323.7092 278.1169,321.2409 C278.8112,320.5468 279.3510,319.7563 279.7367,318.8692 C280.1224,317.9822 280.4117,317.1337 280.6045,316.3237 C280.7974,315.5139 280.9131,314.7619 280.9515,314.0677 C280.9901,313.3734 281.0095,312.7950 281.0095,312.3322 C281.0095,311.0210 280.8551,309.6133 280.5467,308.1092 C280.2381,306.6051 279.5053,305.2361 278.3484,304.0020 C276.9600,302.4592 275.3209,301.5144 273.4313,301.1673 C271.5415,300.8203 269.8639,300.6467 268.3982,300.6467 L258.9111,300.6467 Z Z M353.4368,336.0504 L353.4368,296.2502 C353.4368,295.2474 353.4561,294.0326 353.4947,292.6055 C353.5332,291.1787 353.5911,289.6939 353.6682,288.1513 C353.7454,286.6085 353.8225,285.0660 353.8995,283.5232 C353.9768,281.9807 354.0539,280.5536 354.1311,279.2424 C353.1283,282.4820 352.2027,285.0853 351.3542,287.0521 C350.5058,289.0190 349.5803,291.0823 348.5775,293.2419 L329.0245,336.0504 L312.0167,336.0504 L312.0167,255.6399 L328.4460,255.6399 L328.4460,295.4402 C328.4460,296.4429 328.4267,297.6577 328.3881,299.0848 C328.3495,300.5117 328.2917,301.9965 328.2145,303.5391 C328.1374,305.0818 328.0603,306.6437 327.9831,308.2249 C327.9060,309.8061 327.8289,311.2138 327.7517,312.4479 C328.2145,310.8281 328.6774,309.4012 329.1401,308.1671 C329.6029,306.9330 330.0657,305.7759 330.5286,304.6961 C330.9913,303.6163 331.4541,302.5749 331.9168,301.5722 C332.3798,300.5696 332.8425,299.5282 333.3053,298.4484 L352.8583,255.6399 L369.8661,255.6399 L369.8661,336.0504 L353.4368,336.0504 Z Z M453.8631,265.3586 L424.9386,265.3586 L424.9386,289.6552 L448.6568,289.6552 L448.6568,298.6798 L424.9386,298.6798 L424.9386,336.0504 L413.8315,336.0504 L413.8315,256.3340 L455.3673,256.3340 L453.8631,265.3586 Z Z M465.2018,336.0504 L465.2018,273.9202 L476.3088,273.9202 L476.3088,336.0504 L465.2018,336.0504 Z Z M531.6128,336.0504 L516.5720,311.0595 L502.2254,336.0504 L488.5729,336.0504 L509.7457,302.8449 L491.1183,273.9202 L504.4236,273.9202 L516.2249,293.7047 L527.7948,273.9202 L540.8686,273.9202 L523.0510,302.1508 L544.9180,336.0504 L531.6128,336.0504 Z"
       style="fill-rule: evenodd; fill: #179cbf; "
       id="path4" />
    <path
       style="fill:#179cbf;fill-opacity:1;stroke-width:0.125"
       d="m 610.55753,348.10589 c -3.4051,-0.13666 -6.58114,-0.60418 -10.09102,-1.48539 -14.2029,-3.56589 -26.23457,-13.27063 -32.83681,-26.48617 -7.18411,-14.38023 -7.04956,-31.42817 0.3608,-45.71506 7.18063,-13.844 20.45356,-23.68861 35.69203,-26.47299 3.54161,-0.64712 4.918,-0.76115 9.1875,-0.76115 4.27279,0 5.65867,0.115 9.1875,0.7624 17.99869,3.30204 32.88199,16.22858 38.7401,33.64681 2.29908,6.83598 3.1076,14.3529 2.31689,21.54063 -2.17452,19.76709 -15.7819,36.45724 -34.73402,42.60305 -5.62083,1.82272 -11.60321,2.61751 -17.82297,2.36787 z m 5.5625,-5.61635 c 10.85325,-0.80024 20.77156,-5.32961 28.44567,-12.9902 2.79445,-2.78953 4.5281,-4.9563 6.55055,-8.18707 3.65354,-5.83635 5.98095,-12.88569 6.57386,-19.91109 0.18974,-2.24826 0.0892,-7.28433 -0.18748,-9.39572 -1.69761,-12.95223 -8.62833,-24.26067 -19.33758,-31.55194 -10.27413,-6.99502 -22.80835,-9.39396 -35.06723,-6.71155 -11.49774,2.51585 -21.82487,9.74562 -28.14544,19.70394 -3.61473,5.69516 -5.79956,11.75875 -6.7285,18.67368 -0.32433,2.41424 -0.32478,8.60265 -8e-4,11 1.17795,8.71665 4.28854,16.06986 9.59739,22.6875 9.23041,11.50601 23.60237,17.76612 38.29956,16.68245 z"
       id="path25"
       inkscape:export-filename="C:\Users\lilyc\Desktop\apple-touch-icon.png"
       inkscape:export-xdpi="170.72499"
       inkscape:export-ydpi="170.72499" />
  </g>
</svg>
